<svg xmlns="http://www.w3.org/2000/svg" xmlns:xlink="http://www.w3.org/1999/xlink" width="128" height="128" viewBox="0 0 375 374.999991" preserveAspectRatio="xMidYMid meet" version="1.0"><defs><g/><clipPath id="43febd3428"><path d="M 152.46875 164.78125 L 220.242188 164.78125 L 220.242188 266.707031 L 152.46875 266.707031 Z M 152.46875 164.78125 " clip-rule="nonzero"/></clipPath><clipPath id="93f1abde2b"><path d="M 186.355469 266.535156 L 220.242188 164.78125 L 152.46875 164.78125 Z M 186.355469 266.535156 " clip-rule="nonzero"/></clipPath><clipPath id="0194771f6d"><path d="M 0.46875 0.78125 L 68.242188 0.78125 L 68.242188 102.640625 L 0.46875 102.640625 Z M 0.46875 0.78125 " clip-rule="nonzero"/></clipPath><clipPath id="fb0ea5e228"><path d="M 34.355469 102.535156 L 68.242188 0.78125 L 0.46875 0.78125 Z M 34.355469 102.535156 " clip-rule="nonzero"/></clipPath><clipPath id="206431663d"><rect x="0" width="69" y="0" height="103"/></clipPath><clipPath id="ae752f07aa"><path d="M 126.355469 103.046875 L 246.34375 103.046875 L 246.34375 182.832031 L 126.355469 182.832031 Z M 126.355469 103.046875 " clip-rule="nonzero"/></clipPath><clipPath id="ee39b23ce3"><path d="M 126.367188 103.046875 C 126.367188 146.503906 153.679688 182.832031 186.355469 182.832031 C 219.03125 182.832031 246.34375 146.503906 246.34375 103.046875 Z M 126.367188 103.046875 " clip-rule="nonzero"/></clipPath><clipPath id="717b0ec020"><path d="M 0.355469 0.046875 L 120.34375 0.046875 L 120.34375 79.832031 L 0.355469 79.832031 Z M 0.355469 0.046875 " clip-rule="nonzero"/></clipPath><clipPath id="e3aba7b7fc"><path d="M 0.367188 0.046875 C 0.367188 43.503906 27.679688 79.832031 60.355469 79.832031 C 93.03125 79.832031 120.34375 43.503906 120.34375 0.046875 Z M 0.367188 0.046875 " clip-rule="nonzero"/></clipPath><clipPath id="855ba95121"><rect x="0" width="121" y="0" height="80"/></clipPath><clipPath id="64b6591cf5"><path d="M 132.726562 108.488281 L 239.890625 108.488281 L 239.890625 172.4375 L 132.726562 172.4375 Z M 132.726562 108.488281 " clip-rule="nonzero"/></clipPath><clipPath id="3f8394c05d"><path d="M 132.796875 108.488281 C 132.796875 143.320312 157.175781 172.4375 186.34375 172.4375 C 215.511719 172.4375 239.890625 143.320312 239.890625 108.488281 Z M 132.796875 108.488281 " clip-rule="nonzero"/></clipPath><clipPath id="8de3ea977a"><path d="M 0.726562 0.488281 L 107.890625 0.488281 L 107.890625 64.4375 L 0.726562 64.4375 Z M 0.726562 0.488281 " clip-rule="nonzero"/></clipPath><clipPath id="bf20588576"><path d="M 0.796875 0.488281 C 0.796875 35.320312 25.175781 64.4375 54.34375 64.4375 C 83.511719 64.4375 107.890625 35.320312 107.890625 0.488281 Z M 0.796875 0.488281 " clip-rule="nonzero"/></clipPath><clipPath id="e0946c6870"><rect x="0" width="108" y="0" height="65"/></clipPath><clipPath id="2a9766a4ac"><path d="M 134.894531 130.652344 L 239.894531 130.652344 L 239.894531 140.402344 L 134.894531 140.402344 Z M 134.894531 130.652344 " clip-rule="nonzero"/></clipPath></defs><g fill="#004aad" fill-opacity="1"><g transform="translate(55.574439, 300.814534)"><g><path d="M 35.890625 -30.609375 C 36.535156 -30.460938 37.191406 -30.289062 37.859375 -30.09375 C 38.535156 -29.90625 39.195312 -29.71875 39.84375 -29.53125 C 41 -29.21875 41.988281 -28.921875 42.8125 -28.640625 C 43.644531 -28.359375 44.273438 -27.972656 44.703125 -27.484375 C 45.140625 -26.992188 45.367188 -26.265625 45.390625 -25.296875 C 45.421875 -24.328125 45.21875 -22.992188 44.78125 -21.296875 C 44.632812 -20.640625 44.160156 -20.207031 43.359375 -20 C 42.554688 -19.789062 41.613281 -19.671875 40.53125 -19.640625 C 39.445312 -19.609375 38.351562 -19.546875 37.25 -19.453125 C 36.15625 -19.367188 35.1875 -19.125 34.34375 -18.71875 C 33.507812 -18.3125 32.976562 -17.625 32.75 -16.65625 C 32.613281 -16.03125 32.71875 -15.242188 33.0625 -14.296875 C 33.40625 -13.347656 33.863281 -12.304688 34.4375 -11.171875 C 35.007812 -10.046875 35.554688 -8.863281 36.078125 -7.625 C 36.609375 -6.382812 37.015625 -5.148438 37.296875 -3.921875 C 37.585938 -2.703125 37.601562 -1.539062 37.34375 -0.4375 C 36.757812 2.03125 35.660156 4 34.046875 5.46875 C 32.429688 6.945312 30.535156 7.90625 28.359375 8.34375 C 26.179688 8.789062 23.925781 8.742188 21.59375 8.203125 C 21.269531 8.128906 20.753906 7.957031 20.046875 7.6875 C 19.347656 7.414062 18.578125 7.085938 17.734375 6.703125 C 16.898438 6.316406 16.109375 5.898438 15.359375 5.453125 C 14.609375 5.015625 14.003906 4.546875 13.546875 4.046875 C 13.097656 3.554688 12.921875 3.109375 13.015625 2.703125 C 13.128906 2.210938 13.332031 1.570312 13.625 0.78125 C 13.914062 0 14.28125 -0.785156 14.71875 -1.578125 C 15.164062 -2.367188 15.65625 -3 16.1875 -3.46875 C 16.726562 -3.945312 17.289062 -4.117188 17.875 -3.984375 C 18.488281 -3.835938 19.078125 -3.578125 19.640625 -3.203125 C 20.203125 -2.828125 20.765625 -2.441406 21.328125 -2.046875 C 21.890625 -1.660156 22.445312 -1.40625 23 -1.28125 C 23.84375 -1.082031 24.519531 -1.015625 25.03125 -1.078125 C 25.539062 -1.148438 25.894531 -1.609375 26.09375 -2.453125 C 26.332031 -3.460938 26.289062 -4.457031 25.96875 -5.4375 C 25.65625 -6.414062 25.207031 -7.40625 24.625 -8.40625 C 24.039062 -9.414062 23.460938 -10.453125 22.890625 -11.515625 C 22.316406 -12.578125 21.882812 -13.675781 21.59375 -14.8125 C 21.3125 -15.945312 21.3125 -17.109375 21.59375 -18.296875 C 21.78125 -19.140625 22.175781 -19.882812 22.78125 -20.53125 C 23.382812 -21.175781 23.960938 -21.757812 24.515625 -22.28125 C 25.066406 -22.800781 25.382812 -23.238281 25.46875 -23.59375 C 25.539062 -23.882812 25.394531 -24.132812 25.03125 -24.34375 C 24.664062 -24.550781 24.25 -24.726562 23.78125 -24.875 C 23.320312 -25.019531 22.992188 -25.117188 22.796875 -25.171875 C 22.441406 -25.242188 22.070312 -25.316406 21.6875 -25.390625 C 21.3125 -25.460938 20.945312 -25.539062 20.59375 -25.625 C 19.945312 -25.78125 19.332031 -25.96875 18.75 -26.1875 C 18.164062 -26.40625 17.722656 -26.738281 17.421875 -27.1875 C 17.117188 -27.644531 17.0625 -28.273438 17.25 -29.078125 C 17.40625 -29.734375 17.648438 -30.453125 17.984375 -31.234375 C 18.316406 -32.023438 18.785156 -32.59375 19.390625 -32.9375 C 19.835938 -33.207031 20.625 -33.320312 21.75 -33.28125 C 22.882812 -33.238281 24.175781 -33.09375 25.625 -32.84375 C 27.082031 -32.59375 28.523438 -32.316406 29.953125 -32.015625 C 31.378906 -31.710938 32.632812 -31.421875 33.71875 -31.140625 C 34.8125 -30.867188 35.535156 -30.691406 35.890625 -30.609375 Z M 40.03125 3.828125 C 39.957031 3.265625 39.84375 2.484375 39.6875 1.484375 C 39.53125 0.492188 39.363281 -0.582031 39.1875 -1.75 C 39.007812 -2.914062 38.847656 -4.070312 38.703125 -5.21875 C 38.566406 -6.363281 38.46875 -7.394531 38.40625 -8.3125 C 38.351562 -9.238281 38.378906 -9.929688 38.484375 -10.390625 C 38.585938 -10.835938 38.921875 -11.203125 39.484375 -11.484375 C 40.046875 -11.765625 40.707031 -11.976562 41.46875 -12.125 C 42.226562 -12.269531 42.953125 -12.351562 43.640625 -12.375 C 44.328125 -12.40625 44.847656 -12.378906 45.203125 -12.296875 C 45.554688 -12.210938 45.910156 -12.078125 46.265625 -11.890625 C 46.617188 -11.710938 46.878906 -11.460938 47.046875 -11.140625 C 47.304688 -10.671875 47.59375 -9.9375 47.90625 -8.9375 C 48.21875 -7.9375 48.507812 -6.820312 48.78125 -5.59375 C 49.0625 -4.375 49.296875 -3.144531 49.484375 -1.90625 C 49.679688 -0.664062 49.8125 0.457031 49.875 1.46875 C 49.9375 2.476562 49.90625 3.257812 49.78125 3.8125 C 49.632812 4.425781 49.285156 4.925781 48.734375 5.3125 C 48.191406 5.707031 47.539062 5.984375 46.78125 6.140625 C 46.019531 6.304688 45.269531 6.394531 44.53125 6.40625 C 43.789062 6.425781 43.175781 6.378906 42.6875 6.265625 C 41.84375 6.066406 41.207031 5.8125 40.78125 5.5 C 40.363281 5.195312 40.113281 4.640625 40.03125 3.828125 Z M 2.65625 -6.734375 C 2.664062 -7.066406 2.882812 -7.640625 3.3125 -8.453125 C 3.75 -9.273438 4.3125 -10.195312 5 -11.21875 C 5.6875 -12.25 6.394531 -13.257812 7.125 -14.25 C 7.851562 -15.25 8.515625 -16.117188 9.109375 -16.859375 C 9.710938 -17.597656 10.164062 -18.09375 10.46875 -18.34375 C 10.894531 -18.726562 11.378906 -18.957031 11.921875 -19.03125 C 12.472656 -19.101562 13.007812 -19.082031 13.53125 -18.96875 C 13.957031 -18.863281 14.488281 -18.691406 15.125 -18.453125 C 15.769531 -18.210938 16.398438 -17.910156 17.015625 -17.546875 C 17.640625 -17.179688 18.140625 -16.765625 18.515625 -16.296875 C 18.890625 -15.835938 19.007812 -15.316406 18.875 -14.734375 C 18.769531 -14.316406 18.535156 -13.582031 18.171875 -12.53125 C 17.804688 -11.488281 17.335938 -10.332031 16.765625 -9.0625 C 16.191406 -7.789062 15.546875 -6.546875 14.828125 -5.328125 C 14.117188 -4.109375 13.359375 -3.097656 12.546875 -2.296875 C 11.742188 -1.492188 10.910156 -1.050781 10.046875 -0.96875 C 9.109375 -0.914062 8.050781 -1.101562 6.875 -1.53125 C 5.707031 -1.957031 4.710938 -2.609375 3.890625 -3.484375 C 3.066406 -4.367188 2.65625 -5.453125 2.65625 -6.734375 Z M 2.65625 -6.734375 "/></g></g></g><g fill="#004aad" fill-opacity="1"><g transform="translate(126.190502, 315.631547)"><g><path d="M 41.515625 -29.109375 L 41.0625 -25.84375 C 41 -25.101562 40.695312 -24.566406 40.15625 -24.234375 C 39.613281 -23.910156 38.976562 -23.707031 38.25 -23.625 C 37.519531 -23.550781 36.875 -23.535156 36.3125 -23.578125 C 35.914062 -23.609375 35.179688 -23.734375 34.109375 -23.953125 C 33.035156 -24.171875 31.765625 -24.441406 30.296875 -24.765625 C 28.835938 -25.097656 27.320312 -25.445312 25.75 -25.8125 C 24.175781 -26.1875 22.703125 -26.550781 21.328125 -26.90625 C 19.953125 -27.269531 18.804688 -27.59375 17.890625 -27.875 C 16.972656 -28.164062 16.4375 -28.382812 16.28125 -28.53125 C 16 -28.78125 15.710938 -29.164062 15.421875 -29.6875 C 15.128906 -30.21875 15 -30.664062 15.03125 -31.03125 C 15.144531 -32.5625 15.5 -33.660156 16.09375 -34.328125 C 16.695312 -35.003906 17.5 -35.421875 18.5 -35.578125 C 19.507812 -35.742188 20.660156 -35.773438 21.953125 -35.671875 C 22.578125 -35.617188 23.507812 -35.53125 24.75 -35.40625 C 25.988281 -35.28125 27.375 -35.101562 28.90625 -34.875 C 30.4375 -34.65625 31.9375 -34.421875 33.40625 -34.171875 C 34.875 -33.929688 36.179688 -33.675781 37.328125 -33.40625 C 38.472656 -33.132812 39.265625 -32.847656 39.703125 -32.546875 C 41.023438 -31.710938 41.628906 -30.566406 41.515625 -29.109375 Z M 6.609375 -14.125 C 6.640625 -14.5625 6.75 -15.273438 6.9375 -16.265625 C 7.132812 -17.253906 7.378906 -18.328125 7.671875 -19.484375 C 7.960938 -20.648438 8.242188 -21.695312 8.515625 -22.625 C 8.785156 -23.5625 9.035156 -24.191406 9.265625 -24.515625 C 9.566406 -24.953125 9.910156 -25.320312 10.296875 -25.625 C 10.679688 -25.9375 11.148438 -26.140625 11.703125 -26.234375 C 12.441406 -26.335938 13.1875 -26.367188 13.9375 -26.328125 C 14.6875 -26.285156 15.421875 -26.238281 16.140625 -26.1875 C 16.609375 -26.144531 17.101562 -26.03125 17.625 -25.84375 C 18.15625 -25.65625 18.597656 -25.378906 18.953125 -25.015625 C 19.304688 -24.660156 19.460938 -24.195312 19.421875 -23.625 C 19.378906 -23.09375 19.285156 -22.664062 19.140625 -22.34375 C 19.003906 -22.03125 18.914062 -21.609375 18.875 -21.078125 C 18.875 -21.046875 18.898438 -20.914062 18.953125 -20.6875 C 19.003906 -20.46875 19.046875 -20.335938 19.078125 -20.296875 C 19.992188 -20.285156 20.921875 -20.378906 21.859375 -20.578125 C 22.796875 -20.773438 23.773438 -20.957031 24.796875 -21.125 C 26.015625 -21.289062 27.15625 -21.429688 28.21875 -21.546875 C 29.28125 -21.660156 30.425781 -21.671875 31.65625 -21.578125 C 33.582031 -21.429688 35.460938 -21.128906 37.296875 -20.671875 C 39.140625 -20.210938 40.785156 -19.515625 42.234375 -18.578125 C 43.679688 -17.648438 44.796875 -16.410156 45.578125 -14.859375 C 46.359375 -13.316406 46.660156 -11.382812 46.484375 -9.0625 C 46.285156 -6.53125 45.507812 -4.414062 44.15625 -2.71875 C 42.8125 -1.019531 41.128906 0.34375 39.109375 1.375 C 37.085938 2.414062 34.957031 3.203125 32.71875 3.734375 C 30.769531 4.179688 28.816406 4.421875 26.859375 4.453125 C 24.898438 4.484375 22.925781 4.421875 20.9375 4.265625 C 20.363281 4.222656 19.53125 4.132812 18.4375 4 C 17.351562 3.875 16.21875 3.671875 15.03125 3.390625 C 13.84375 3.117188 12.804688 2.75 11.921875 2.28125 C 11.046875 1.8125 10.535156 1.234375 10.390625 0.546875 C 10.316406 0.203125 10.273438 -0.132812 10.265625 -0.46875 C 10.265625 -0.800781 10.273438 -1.132812 10.296875 -1.46875 C 10.378906 -2.5625 10.445312 -3.488281 10.5 -4.25 C 10.5625 -5.019531 10.804688 -5.585938 11.234375 -5.953125 C 11.660156 -6.328125 12.476562 -6.46875 13.6875 -6.375 C 14.707031 -6.300781 15.6875 -6.160156 16.625 -5.953125 C 17.5625 -5.742188 18.570312 -5.539062 19.65625 -5.34375 C 20.75 -5.144531 22.046875 -4.988281 23.546875 -4.875 C 24.578125 -4.789062 25.703125 -4.675781 26.921875 -4.53125 C 28.148438 -4.382812 29.332031 -4.347656 30.46875 -4.421875 C 31.613281 -4.503906 32.578125 -4.820312 33.359375 -5.375 C 34.140625 -5.925781 34.582031 -6.867188 34.6875 -8.203125 C 34.757812 -9.078125 34.5625 -9.789062 34.09375 -10.34375 C 33.632812 -10.894531 33.039062 -11.320312 32.3125 -11.625 C 31.582031 -11.9375 30.832031 -12.117188 30.0625 -12.171875 C 28.570312 -12.285156 27.125 -12.195312 25.71875 -11.90625 C 24.3125 -11.613281 22.921875 -11.257812 21.546875 -10.84375 C 20.171875 -10.4375 18.796875 -10.082031 17.421875 -9.78125 C 16.046875 -9.488281 14.632812 -9.398438 13.1875 -9.515625 C 12.71875 -9.554688 12.101562 -9.703125 11.34375 -9.953125 C 10.59375 -10.210938 9.847656 -10.546875 9.109375 -10.953125 C 8.378906 -11.367188 7.765625 -11.851562 7.265625 -12.40625 C 6.773438 -12.957031 6.554688 -13.53125 6.609375 -14.125 Z M 6.609375 -14.125 "/></g></g></g><g fill="#004aad" fill-opacity="1"><g transform="translate(198.242112, 319.468677)"><g><path d="M 29.09375 -10.25 C 30.070312 -11.03125 31.046875 -11.757812 32.015625 -12.4375 C 32.984375 -13.113281 33.851562 -13.832031 34.625 -14.59375 C 35.40625 -15.363281 36.007812 -16.234375 36.4375 -17.203125 C 36.875 -18.171875 37.039062 -19.320312 36.9375 -20.65625 C 36.832031 -21.914062 36.554688 -23.132812 36.109375 -24.3125 C 35.671875 -25.5 35.113281 -26.546875 34.4375 -27.453125 C 33.769531 -28.359375 33.050781 -28.988281 32.28125 -29.34375 C 31.519531 -29.707031 30.773438 -29.691406 30.046875 -29.296875 C 29.460938 -29.015625 28.992188 -28.289062 28.640625 -27.125 C 28.296875 -25.96875 27.984375 -24.507812 27.703125 -22.75 C 27.429688 -20.988281 27.128906 -19.09375 26.796875 -17.0625 C 26.460938 -15.03125 26.019531 -13.023438 25.46875 -11.046875 C 24.925781 -9.066406 24.21875 -7.253906 23.34375 -5.609375 C 22.46875 -3.972656 21.347656 -2.65625 19.984375 -1.65625 C 18.628906 -0.664062 16.945312 -0.160156 14.9375 -0.140625 C 12.5 -0.117188 10.429688 -0.453125 8.734375 -1.140625 C 7.046875 -1.835938 5.671875 -2.753906 4.609375 -3.890625 C 3.554688 -5.023438 2.722656 -6.296875 2.109375 -7.703125 C 1.503906 -9.117188 1.066406 -10.566406 0.796875 -12.046875 C 0.535156 -13.523438 0.351562 -14.929688 0.25 -16.265625 C 0.0625 -18.753906 0.363281 -21.117188 1.15625 -23.359375 C 1.957031 -25.597656 3.128906 -27.660156 4.671875 -29.546875 C 6.210938 -31.429688 8 -33.078125 10.03125 -34.484375 C 12.0625 -35.898438 14.222656 -37.035156 16.515625 -37.890625 C 18.816406 -38.753906 21.109375 -39.273438 23.390625 -39.453125 C 26.085938 -39.660156 28.785156 -39.390625 31.484375 -38.640625 C 34.179688 -37.898438 36.664062 -36.75 38.9375 -35.1875 C 41.21875 -33.625 43.097656 -31.695312 44.578125 -29.40625 C 46.066406 -27.113281 46.921875 -24.539062 47.140625 -21.6875 C 47.335938 -19.019531 47.078125 -16.390625 46.359375 -13.796875 C 45.640625 -11.203125 44.5 -8.832031 42.9375 -6.6875 C 41.375 -4.539062 39.460938 -2.816406 37.203125 -1.515625 C 36.585938 -1.128906 35.90625 -0.796875 35.15625 -0.515625 C 34.414062 -0.242188 33.570312 -0.140625 32.625 -0.203125 C 32.125 -0.222656 31.570312 -0.445312 30.96875 -0.875 C 30.363281 -1.300781 29.800781 -1.800781 29.28125 -2.375 C 28.757812 -2.957031 28.320312 -3.550781 27.96875 -4.15625 C 27.613281 -4.757812 27.421875 -5.273438 27.390625 -5.703125 C 27.359375 -6.140625 27.382812 -6.660156 27.46875 -7.265625 C 27.5625 -7.878906 27.734375 -8.46875 27.984375 -9.03125 C 28.234375 -9.59375 28.601562 -10 29.09375 -10.25 Z M 10.484375 -16.390625 C 10.515625 -15.992188 10.613281 -15.425781 10.78125 -14.6875 C 10.957031 -13.957031 11.191406 -13.191406 11.484375 -12.390625 C 11.785156 -11.597656 12.144531 -10.929688 12.5625 -10.390625 C 12.988281 -9.847656 13.453125 -9.597656 13.953125 -9.640625 C 14.316406 -9.671875 14.660156 -10.066406 14.984375 -10.828125 C 15.304688 -11.585938 15.625 -12.5625 15.9375 -13.75 C 16.25 -14.945312 16.535156 -16.242188 16.796875 -17.640625 C 17.054688 -19.035156 17.273438 -20.398438 17.453125 -21.734375 C 17.640625 -23.066406 17.773438 -24.226562 17.859375 -25.21875 C 17.953125 -26.207031 17.984375 -26.898438 17.953125 -27.296875 C 17.929688 -27.566406 17.894531 -27.851562 17.84375 -28.15625 C 17.789062 -28.457031 17.578125 -28.59375 17.203125 -28.5625 C 16.179688 -28.476562 15.234375 -27.972656 14.359375 -27.046875 C 13.492188 -26.128906 12.765625 -25.003906 12.171875 -23.671875 C 11.578125 -22.335938 11.128906 -21.015625 10.828125 -19.703125 C 10.523438 -18.398438 10.410156 -17.296875 10.484375 -16.390625 Z M 10.484375 -16.390625 "/></g></g></g><g fill="#004aad" fill-opacity="1"><g transform="translate(270.031735, 312.235511)"><g><path d="M 24.171875 -7.921875 C 24.234375 -8.253906 24.328125 -8.628906 24.453125 -9.046875 C 24.585938 -9.472656 24.710938 -9.851562 24.828125 -10.1875 C 24.953125 -10.53125 25.015625 -10.703125 25.015625 -10.703125 C 25.609375 -12.140625 26.097656 -13.375 26.484375 -14.40625 C 26.867188 -15.4375 27.15625 -16.460938 27.34375 -17.484375 C 27.539062 -18.503906 27.628906 -19.695312 27.609375 -21.0625 C 27.628906 -21.269531 27.394531 -21.398438 26.90625 -21.453125 C 26.425781 -21.515625 25.910156 -21.53125 25.359375 -21.5 C 24.804688 -21.476562 24.453125 -21.445312 24.296875 -21.40625 C 23.710938 -21.269531 23.34375 -20.753906 23.1875 -19.859375 C 23.039062 -18.972656 22.984375 -17.867188 23.015625 -16.546875 C 23.054688 -15.222656 23.035156 -13.796875 22.953125 -12.265625 C 22.867188 -10.734375 22.597656 -9.25 22.140625 -7.8125 C 21.691406 -6.375 20.929688 -5.097656 19.859375 -3.984375 C 18.785156 -2.867188 17.226562 -2.078125 15.1875 -1.609375 C 13.726562 -1.265625 12.132812 -1.304688 10.40625 -1.734375 C 8.675781 -2.171875 7 -2.875 5.375 -3.84375 C 3.757812 -4.820312 2.375 -5.976562 1.21875 -7.3125 C 0.0703125 -8.65625 -0.664062 -10.0625 -1 -11.53125 C -1.394531 -13.175781 -1.269531 -14.75 -0.625 -16.25 C 0.0078125 -17.757812 0.914062 -19.140625 2.09375 -20.390625 C 3.269531 -21.640625 4.460938 -22.710938 5.671875 -23.609375 C 5.921875 -23.816406 6.328125 -24.101562 6.890625 -24.46875 C 7.460938 -24.84375 8.066406 -25.226562 8.703125 -25.625 C 9.347656 -26.03125 9.914062 -26.421875 10.40625 -26.796875 C 10.894531 -27.171875 11.207031 -27.445312 11.34375 -27.625 C 11.707031 -28.082031 11.863281 -28.570312 11.8125 -29.09375 C 11.757812 -29.613281 11.671875 -30.132812 11.546875 -30.65625 C 11.390625 -31.332031 11.125 -31.671875 10.75 -31.671875 C 10.375 -31.671875 9.90625 -31.519531 9.34375 -31.21875 C 8.78125 -30.914062 8.175781 -30.613281 7.53125 -30.3125 C 6.90625 -30.070312 6.085938 -29.78125 5.078125 -29.4375 C 4.078125 -29.101562 3.253906 -28.859375 2.609375 -28.703125 C 1.671875 -28.484375 0.84375 -28.722656 0.125 -29.421875 C -0.582031 -30.128906 -1.070312 -31.050781 -1.34375 -32.1875 C -1.394531 -32.414062 -1.441406 -32.765625 -1.484375 -33.234375 C -1.523438 -33.703125 -1.554688 -34.179688 -1.578125 -34.671875 C -1.609375 -35.160156 -1.597656 -35.519531 -1.546875 -35.75 C -1.429688 -36.238281 -1.015625 -36.722656 -0.296875 -37.203125 C 0.410156 -37.679688 1.273438 -38.125 2.296875 -38.53125 C 3.316406 -38.945312 4.367188 -39.316406 5.453125 -39.640625 C 6.535156 -39.972656 7.523438 -40.25 8.421875 -40.46875 C 9.328125 -40.695312 10.007812 -40.867188 10.46875 -40.984375 C 11.351562 -41.191406 12.21875 -41.40625 13.0625 -41.625 C 13.90625 -41.851562 14.769531 -42.070312 15.65625 -42.28125 C 16.039062 -42.375 16.457031 -42.445312 16.90625 -42.5 C 17.363281 -42.5625 17.796875 -42.539062 18.203125 -42.4375 C 18.921875 -42.257812 19.507812 -41.785156 19.96875 -41.015625 C 20.425781 -40.242188 20.773438 -39.398438 21.015625 -38.484375 C 21.253906 -37.566406 21.445312 -36.800781 21.59375 -36.1875 C 21.800781 -35.28125 21.941406 -34.382812 22.015625 -33.5 C 22.097656 -32.613281 22.25 -31.710938 22.46875 -30.796875 C 22.550781 -30.441406 22.765625 -30.203125 23.109375 -30.078125 C 23.460938 -29.953125 23.847656 -29.90625 24.265625 -29.9375 C 24.679688 -29.96875 25.023438 -30.007812 25.296875 -30.0625 C 25.515625 -30.113281 25.632812 -30.335938 25.65625 -30.734375 C 25.675781 -31.140625 25.640625 -31.554688 25.546875 -31.984375 C 25.460938 -32.410156 25.398438 -32.707031 25.359375 -32.875 C 25.234375 -33.414062 25.085938 -33.945312 24.921875 -34.46875 C 24.765625 -35 24.628906 -35.523438 24.515625 -36.046875 C 24.242188 -37.210938 24.1875 -38.101562 24.34375 -38.71875 C 24.507812 -39.34375 24.890625 -39.800781 25.484375 -40.09375 C 26.085938 -40.394531 26.921875 -40.671875 27.984375 -40.921875 C 29.609375 -41.296875 31.007812 -41.273438 32.1875 -40.859375 C 33.363281 -40.441406 34.164062 -39.320312 34.59375 -37.5 C 34.738281 -36.882812 34.875 -36.25 35 -35.59375 C 35.125 -34.9375 35.265625 -34.28125 35.421875 -33.625 C 35.585938 -32.90625 35.820312 -32.179688 36.125 -31.453125 C 36.425781 -30.722656 36.925781 -30.179688 37.625 -29.828125 C 38.019531 -29.640625 38.53125 -29.484375 39.15625 -29.359375 C 39.789062 -29.234375 40.4375 -29.101562 41.09375 -28.96875 C 41.757812 -28.84375 42.332031 -28.644531 42.8125 -28.375 C 43.300781 -28.113281 43.601562 -27.738281 43.71875 -27.25 C 43.8125 -26.863281 43.847656 -26.316406 43.828125 -25.609375 C 43.804688 -24.898438 43.722656 -24.164062 43.578125 -23.40625 C 43.429688 -22.65625 43.21875 -22 42.9375 -21.4375 C 42.65625 -20.875 42.289062 -20.539062 41.84375 -20.4375 C 41.644531 -20.382812 41.328125 -20.378906 40.890625 -20.421875 C 40.453125 -20.460938 39.988281 -20.378906 39.5 -20.171875 C 39.019531 -19.972656 38.582031 -19.519531 38.1875 -18.8125 C 37.789062 -18.101562 37.515625 -16.976562 37.359375 -15.4375 C 37.304688 -14.945312 37.203125 -14.253906 37.046875 -13.359375 C 36.898438 -12.460938 36.695312 -11.503906 36.4375 -10.484375 C 36.1875 -9.472656 35.878906 -8.488281 35.515625 -7.53125 C 35.160156 -6.570312 34.765625 -5.765625 34.328125 -5.109375 C 33.898438 -4.460938 33.441406 -4.082031 32.953125 -3.96875 C 32.273438 -3.8125 31.421875 -3.769531 30.390625 -3.84375 C 29.367188 -3.914062 28.359375 -4.101562 27.359375 -4.40625 C 26.359375 -4.71875 25.539062 -5.160156 24.90625 -5.734375 C 24.28125 -6.304688 24.035156 -7.035156 24.171875 -7.921875 Z M 9.015625 -13.203125 C 9.066406 -12.972656 9.238281 -12.632812 9.53125 -12.1875 C 9.820312 -11.75 10.15625 -11.359375 10.53125 -11.015625 C 10.90625 -10.679688 11.238281 -10.550781 11.53125 -10.625 C 11.882812 -10.707031 12.144531 -11.003906 12.3125 -11.515625 C 12.488281 -12.035156 12.613281 -12.632812 12.6875 -13.3125 C 12.769531 -14 12.796875 -14.644531 12.765625 -15.25 C 12.742188 -15.863281 12.703125 -16.304688 12.640625 -16.578125 C 12.578125 -16.835938 12.425781 -17.066406 12.1875 -17.265625 C 11.957031 -17.472656 11.710938 -17.550781 11.453125 -17.5 C 10.929688 -17.375 10.460938 -17.0625 10.046875 -16.5625 C 9.628906 -16.070312 9.320312 -15.515625 9.125 -14.890625 C 8.9375 -14.273438 8.898438 -13.710938 9.015625 -13.203125 Z M 9.015625 -13.203125 "/></g></g></g><g clip-path="url(#43febd3428)"><g clip-path="url(#93f1abde2b)"><g transform="matrix(1, 0, 0, 1, 152, 164)"><g clip-path="url(#206431663d)"><g clip-path="url(#0194771f6d)"><g clip-path="url(#fb0ea5e228)"><path fill="#004aad" d="M 0.46875 0.78125 L 68.242188 0.78125 L 68.242188 102.441406 L 0.46875 102.441406 Z M 0.46875 0.78125 " fill-opacity="1" fill-rule="nonzero"/></g></g></g></g></g></g><g clip-path="url(#ae752f07aa)"><g clip-path="url(#ee39b23ce3)"><g transform="matrix(1, 0, 0, 1, 126, 103)"><g clip-path="url(#855ba95121)"><g clip-path="url(#717b0ec020)"><g clip-path="url(#e3aba7b7fc)"><path fill="#004aad" d="M 120.34375 79.832031 L 0.355469 79.832031 L 0.355469 0.046875 L 120.34375 0.046875 Z M 120.34375 79.832031 " fill-opacity="1" fill-rule="nonzero"/></g></g></g></g></g></g><g clip-path="url(#64b6591cf5)"><g clip-path="url(#3f8394c05d)"><g transform="matrix(1, 0, 0, 1, 132, 108)"><g clip-path="url(#e0946c6870)"><g clip-path="url(#8de3ea977a)"><g clip-path="url(#bf20588576)"><path fill="#ffffff" d="M 107.890625 64.4375 L 0.726562 64.4375 L 0.726562 0.488281 L 107.890625 0.488281 Z M 107.890625 64.4375 " fill-opacity="1" fill-rule="nonzero"/></g></g></g></g></g></g><g clip-path="url(#2a9766a4ac)"><path fill="#004aad" d="M 239.550781 133.058594 C 223.855469 137.984375 210.992188 140.445312 200.964844 140.445312 C 195.671875 140.445312 189.546875 139.722656 182.585938 138.277344 C 181.550781 138.09375 175.980469 136.777344 165.875 134.335938 C 159.953125 132.894531 155.601562 132.171875 152.828125 132.171875 C 147.238281 132.171875 141.6875 134.394531 136.171875 138.835938 C 136.023438 138.945312 135.875 139 135.726562 139 C 135.171875 139 134.894531 138.742188 134.894531 138.222656 C 134.894531 138.039062 134.988281 137.871094 135.171875 137.722656 C 140.761719 133.023438 147.054688 130.671875 154.050781 130.671875 C 158.824219 130.671875 163.929688 131.171875 169.371094 132.171875 C 174.183594 133.097656 178.976562 134.042969 183.753906 135.003906 C 189.824219 136.003906 195.929688 136.503906 202.074219 136.503906 C 216.289062 136.503906 228.632812 134.875 239.105469 131.617188 C 239.773438 131.433594 240.105469 131.691406 240.105469 132.394531 C 240.105469 132.726562 239.917969 132.949219 239.550781 133.058594 Z M 239.550781 133.058594 " fill-opacity="1" fill-rule="nonzero"/></g></svg>